<svg width="20" height="22" viewBox="0 0 20 22" fill="none" xmlns="http://www.w3.org/2000/svg">
<path d="M1.25 9.5H7.25" stroke="#242424" stroke-width="1.5" stroke-linecap="round" stroke-linejoin="round"/>
<path d="M1.25 17.75H7.25" stroke="#242424" stroke-width="1.5" stroke-linecap="round" stroke-linejoin="round"/>
<path d="M6.5 6.5H2C1.58579 6.5 1.25 6.83579 1.25 7.25V20C1.25 20.4142 1.58579 20.75 2 20.75H6.5C6.91421 20.75 7.25 20.4142 7.25 20V7.25C7.25 6.83579 6.91421 6.5 6.5 6.5Z" stroke="#242424" stroke-width="1.5" stroke-linejoin="round"/>
<path d="M12 1.25H9C8.58579 1.25 8.25 1.58579 8.25 2V20C8.25 20.4142 8.58579 20.75 9 20.75H12C12.4142 20.75 12.75 20.4142 12.75 20V2C12.75 1.58579 12.4142 1.25 12 1.25Z" stroke="#242424" stroke-width="1.5" stroke-linejoin="round"/>
<path d="M16.2402 3.5053L14.3465 3.70452C13.8252 3.75936 13.4474 4.24686 13.506 4.78733L15.1429 19.8619C15.2019 20.4023 15.6758 20.7994 16.1971 20.745L18.0908 20.5458C18.6121 20.4909 18.9899 20.0034 18.9313 19.463L17.2968 4.39077C17.2354 3.84796 16.7615 3.45046 16.2402 3.5053Z" stroke="#242424" stroke-width="1.5" stroke-linejoin="round"/>
</svg>
