<svg width="25" height="23" viewBox="0 0 25 23" fill="none" xmlns="http://www.w3.org/2000/svg">
<path d="M15.8896 8.33333C16.5112 8.33333 17.1073 8.58026 17.5469 9.0198C17.9864 9.45934 18.2333 10.0555 18.2333 10.6771V17.1865C18.2333 18.7062 17.6296 20.1637 16.555 21.2383C15.4804 22.3129 14.0229 22.9167 12.5031 22.9167C10.9834 22.9167 9.52588 22.3129 8.45126 21.2383C7.37663 20.1637 6.77292 18.7062 6.77292 17.1865V10.6771C6.77292 10.0555 7.01985 9.45934 7.45939 9.0198C7.89892 8.58026 8.49506 8.33333 9.11667 8.33333H15.8896ZM15.8896 9.89583H9.11667C8.90947 9.89583 8.71075 9.97814 8.56424 10.1247C8.41773 10.2712 8.33542 10.4699 8.33542 10.6771V17.1865C8.33542 18.2918 8.77451 19.3519 9.55611 20.1335C10.3377 20.9151 11.3978 21.3542 12.5031 21.3542C13.6085 21.3542 14.6685 20.9151 15.4501 20.1335C16.2317 19.3519 16.6708 18.2918 16.6708 17.1865V10.6771C16.6708 10.4699 16.5885 10.2712 16.442 10.1247C16.2955 9.97814 16.0968 9.89583 15.8896 9.89583ZM2.34375 8.33333H6.67292C6.25471 8.76876 5.96084 9.30831 5.82188 9.89583H2.34375C2.13655 9.89583 1.93784 9.97814 1.79132 10.1247C1.64481 10.2712 1.5625 10.4699 1.5625 10.6771V16.1448C1.56236 16.6675 1.69327 17.1818 1.94326 17.6408C2.19324 18.0998 2.55433 18.4888 2.99348 18.7722C3.43263 19.0556 3.93583 19.2244 4.45706 19.2631C4.97828 19.3018 5.50089 19.2092 5.97708 18.9937C6.11563 19.5042 6.31458 19.9896 6.56458 20.4437C5.8509 20.7553 5.07085 20.8843 4.29486 20.8189C3.51888 20.7535 2.7714 20.4959 2.11992 20.0692C1.46845 19.6426 0.933503 19.0604 0.563389 18.3753C0.193274 17.6901 -0.000350306 16.9235 4.75773e-07 16.1448V10.6771C4.75773e-07 10.0555 0.246931 9.45934 0.686469 9.0198C1.12601 8.58026 1.72215 8.33333 2.34375 8.33333ZM22.6562 8.33333C23.2779 8.33333 23.874 8.58026 24.3135 9.0198C24.7531 9.45934 25 10.0555 25 10.6771V16.1458C25.0003 16.9241 24.8068 17.6903 24.437 18.3751C24.0672 19.0599 23.5327 19.6418 22.8817 20.0684C22.2307 20.495 21.4838 20.7528 20.7082 20.8185C19.9327 20.8842 19.1531 20.7558 18.4396 20.4448L18.4979 20.3385C18.7208 19.9156 18.901 19.4667 19.0302 18.9958C19.5061 19.21 20.0281 19.3015 20.5485 19.2621C21.0689 19.2227 21.5712 19.0536 22.0094 18.7702C22.4477 18.4868 22.8079 18.0981 23.0574 17.6397C23.3069 17.1813 23.4375 16.6677 23.4375 16.1458V10.6771C23.4375 10.4701 23.3553 10.2715 23.209 10.125C23.0628 9.97854 22.8643 9.89611 22.6573 9.89583H19.1854C19.0462 9.30818 18.752 8.76861 18.3333 8.33333H22.6573H22.6562ZM12.5 0C12.9788 -1.00895e-08 13.4529 0.0943022 13.8952 0.277522C14.3375 0.460743 14.7394 0.729293 15.078 1.06784C15.4165 1.40639 15.6851 1.8083 15.8683 2.25063C16.0515 2.69297 16.1458 3.16706 16.1458 3.64583C16.1458 4.12461 16.0515 4.5987 15.8683 5.04103C15.6851 5.48337 15.4165 5.88528 15.078 6.22383C14.7394 6.56237 14.3375 6.83092 13.8952 7.01414C13.4529 7.19736 12.9788 7.29167 12.5 7.29167C11.5331 7.29167 10.6057 6.90755 9.92201 6.22383C9.23828 5.5401 8.85417 4.61277 8.85417 3.64583C8.85417 2.6789 9.23828 1.75157 9.92201 1.06784C10.6057 0.384114 11.5331 2.03766e-08 12.5 0ZM20.8365 1.04167C21.2468 1.04167 21.6532 1.1225 22.0323 1.27954C22.4115 1.43659 22.756 1.66677 23.0462 1.95696C23.3363 2.24714 23.5665 2.59164 23.7236 2.97078C23.8806 3.34992 23.9615 3.75629 23.9615 4.16667C23.9615 4.57705 23.8806 4.98341 23.7236 5.36255C23.5665 5.74169 23.3363 6.08619 23.0462 6.37638C22.756 6.66656 22.4115 6.89674 22.0323 7.05379C21.6532 7.21084 21.2468 7.29167 20.8365 7.29167C20.0077 7.29167 19.2128 6.96243 18.6267 6.37638C18.0407 5.79032 17.7115 4.99547 17.7115 4.16667C17.7115 3.33787 18.0407 2.54301 18.6267 1.95696C19.2128 1.37091 20.0077 1.04167 20.8365 1.04167ZM4.16354 1.04167C4.57392 1.04167 4.98029 1.1225 5.35943 1.27954C5.73857 1.43659 6.08307 1.66677 6.37325 1.95696C6.66343 2.24714 6.89362 2.59164 7.05067 2.97078C7.20771 3.34992 7.28854 3.75629 7.28854 4.16667C7.28854 4.57705 7.20771 4.98341 7.05067 5.36255C6.89362 5.74169 6.66343 6.08619 6.37325 6.37638C6.08307 6.66656 5.73857 6.89674 5.35943 7.05379C4.98029 7.21084 4.57392 7.29167 4.16354 7.29167C3.33474 7.29167 2.53988 6.96243 1.95383 6.37638C1.36778 5.79032 1.03854 4.99547 1.03854 4.16667C1.03854 3.33787 1.36778 2.54301 1.95383 1.95696C2.53988 1.37091 3.33474 1.04167 4.16354 1.04167ZM12.5 1.5625C11.9475 1.5625 11.4176 1.78199 11.0269 2.17269C10.6362 2.56339 10.4167 3.0933 10.4167 3.64583C10.4167 4.19837 10.6362 4.72827 11.0269 5.11897C11.4176 5.50967 11.9475 5.72917 12.5 5.72917C13.0525 5.72917 13.5824 5.50967 13.9731 5.11897C14.3638 4.72827 14.5833 4.19837 14.5833 3.64583C14.5833 3.0933 14.3638 2.56339 13.9731 2.17269C13.5824 1.78199 13.0525 1.5625 12.5 1.5625ZM20.8365 2.60417C20.6313 2.60417 20.4281 2.64458 20.2385 2.7231C20.0489 2.80163 19.8767 2.91672 19.7316 3.06181C19.5865 3.2069 19.4714 3.37915 19.3929 3.56872C19.3144 3.75829 19.274 3.96148 19.274 4.16667C19.274 4.37186 19.3144 4.57504 19.3929 4.76461C19.4714 4.95418 19.5865 5.12643 19.7316 5.27152C19.8767 5.41661 20.0489 5.53171 20.2385 5.61023C20.4281 5.68875 20.6313 5.72917 20.8365 5.72917C21.2509 5.72917 21.6483 5.56455 21.9413 5.27152C22.2343 4.9785 22.399 4.58107 22.399 4.16667C22.399 3.75227 22.2343 3.35484 21.9413 3.06181C21.6483 2.76879 21.2509 2.60417 20.8365 2.60417ZM4.16354 2.60417C3.95835 2.60417 3.75517 2.64458 3.5656 2.7231C3.37603 2.80163 3.20378 2.91672 3.05869 3.06181C2.9136 3.2069 2.7985 3.37915 2.71998 3.56872C2.64146 3.75829 2.60104 3.96148 2.60104 4.16667C2.60104 4.37186 2.64146 4.57504 2.71998 4.76461C2.7985 4.95418 2.9136 5.12643 3.05869 5.27152C3.20378 5.41661 3.37603 5.53171 3.5656 5.61023C3.75517 5.68875 3.95835 5.72917 4.16354 5.72917C4.57794 5.72917 4.97537 5.56455 5.2684 5.27152C5.56142 4.9785 5.72604 4.58107 5.72604 4.16667C5.72604 3.75227 5.56142 3.35484 5.2684 3.06181C4.97537 2.76879 4.57794 2.60417 4.16354 2.60417Z" fill="black"/>
</svg>
