<svg width="25" height="25" viewBox="0 0 25 25" fill="none" xmlns="http://www.w3.org/2000/svg">
<path d="M25 20.9782V13.7288C25 11.3575 25 10.1719 24.5125 9.12397C24.0249 8.076 23.1068 7.28831 21.2707 5.71293L19.8818 4.52129C16.3687 1.50709 14.6122 0 12.5 0C10.3878 0 8.63125 1.50709 5.11818 4.52129L3.72929 5.71293C1.89317 7.28831 0.975111 8.076 0.487556 9.12397C0 10.1719 0 11.3575 0 13.7288V20.9782C0 22.2275 0 22.8521 0.211444 23.3449C0.493375 24.0018 1.03414 24.5238 1.71476 24.796C2.22525 25 2.87239 25 4.16667 25H4.62963C5.49071 25 5.92126 25 6.2745 24.9087C7.23308 24.6607 7.98183 23.938 8.23868 23.0127C8.33333 22.6718 8.33333 22.2562 8.33333 21.425V18.2969C8.33333 16.0757 10.1987 14.2751 12.5 14.2751C14.8012 14.2751 16.6667 16.0757 16.6667 18.2969V21.425C16.6667 22.2562 16.6667 22.6718 16.7612 23.0127C17.0182 23.938 17.7669 24.6607 18.7256 24.9087C19.0788 25 19.5093 25 20.3704 25H20.8333C22.1276 25 22.7747 25 23.2853 24.796C23.9658 24.5238 24.5067 24.0018 24.7886 23.3449C25 22.8521 25 22.2275 25 20.9782Z" fill="black"/>
</svg>
