<svg width="24" height="20" viewBox="0 0 24 20" fill="none" xmlns="http://www.w3.org/2000/svg">
<path d="M12 5.49988C12.75 2.53926 15.5827 1.02754 21.75 0.999883C21.8486 0.999511 21.9463 1.01866 22.0375 1.05622C22.1286 1.09378 22.2114 1.14901 22.2812 1.21872C22.3509 1.28844 22.4061 1.37127 22.4437 1.46243C22.4812 1.55359 22.5004 1.65129 22.5 1.74988V15.2499C22.5 15.4488 22.421 15.6396 22.2803 15.7802C22.1397 15.9209 21.9489 15.9999 21.75 15.9999C15.75 15.9999 13.432 17.2097 12 18.9999C10.5764 17.2186 8.25001 15.9999 2.25001 15.9999C1.78688 15.9999 1.50001 15.6225 1.50001 15.1594V1.74988C1.49963 1.65129 1.51878 1.55359 1.55634 1.46243C1.5939 1.37127 1.64913 1.28844 1.71885 1.21872C1.78856 1.14901 1.87139 1.09378 1.96255 1.05622C2.05372 1.01866 2.15141 0.999511 2.25001 0.999883C8.41735 1.02754 11.25 2.53926 12 5.49988Z" stroke="#8C8C8C" stroke-width="1.5" stroke-linecap="round" stroke-linejoin="round"/>
<path d="M12 5.5V19" stroke="#8C8C8C" stroke-width="1.5" stroke-linecap="round" stroke-linejoin="round"/>
</svg>
