<svg width="26" height="22" viewBox="0 0 26 22" fill="none" xmlns="http://www.w3.org/2000/svg">
<path d="M25.3799 1.30025H7.48775C7.35294 1.30025 7.24265 1.41054 7.24265 1.54534V3.26103C7.24265 3.39583 7.35294 3.50613 7.48775 3.50613H25.3799C25.5147 3.50613 25.625 3.39583 25.625 3.26103V1.54534C25.625 1.41054 25.5147 1.30025 25.3799 1.30025ZM25.3799 10.0012H7.48775C7.35294 10.0012 7.24265 10.1115 7.24265 10.2463V11.962C7.24265 12.0968 7.35294 12.2071 7.48775 12.2071H25.3799C25.5147 12.2071 25.625 12.0968 25.625 11.962V10.2463C25.625 10.1115 25.5147 10.0012 25.3799 10.0012ZM25.3799 18.7022H7.48775C7.35294 18.7022 7.24265 18.8125 7.24265 18.9473V20.663C7.24265 20.7978 7.35294 20.9081 7.48775 20.9081H25.3799C25.5147 20.9081 25.625 20.7978 25.625 20.663V18.9473C25.625 18.8125 25.5147 18.7022 25.3799 18.7022ZM0.625 2.40319C0.625 2.62849 0.669378 2.85159 0.755599 3.05975C0.84182 3.26791 0.968197 3.45704 1.12751 3.61636C1.28683 3.77568 1.47597 3.90205 1.68412 3.98827C1.89228 4.07449 2.11538 4.11887 2.34069 4.11887C2.56599 4.11887 2.78909 4.07449 2.99725 3.98827C3.20541 3.90205 3.39454 3.77568 3.55386 3.61636C3.71318 3.45704 3.83955 3.26791 3.92577 3.05975C4.012 2.85159 4.05637 2.62849 4.05637 2.40319C4.05637 2.17788 4.012 1.95478 3.92577 1.74662C3.83955 1.53847 3.71318 1.34933 3.55386 1.19001C3.39454 1.0307 3.20541 0.90432 2.99725 0.818099C2.78909 0.731877 2.56599 0.6875 2.34069 0.6875C2.11538 0.6875 1.89228 0.731877 1.68412 0.818099C1.47597 0.90432 1.28683 1.0307 1.12751 1.19001C0.968197 1.34933 0.84182 1.53847 0.755599 1.74662C0.669378 1.95478 0.625 2.17788 0.625 2.40319ZM0.625 11.1042C0.625 11.3295 0.669378 11.5526 0.755599 11.7607C0.84182 11.9689 0.968197 12.158 1.12751 12.3173C1.28683 12.4767 1.47597 12.603 1.68412 12.6893C1.89228 12.7755 2.11538 12.8199 2.34069 12.8199C2.56599 12.8199 2.78909 12.7755 2.99725 12.6893C3.20541 12.603 3.39454 12.4767 3.55386 12.3173C3.71318 12.158 3.83955 11.9689 3.92577 11.7607C4.012 11.5526 4.05637 11.3295 4.05637 11.1042C4.05637 10.8789 4.012 10.6558 3.92577 10.4476C3.83955 10.2394 3.71318 10.0503 3.55386 9.89099C3.39454 9.73168 3.20541 9.6053 2.99725 9.51908C2.78909 9.43286 2.56599 9.38848 2.34069 9.38848C2.11538 9.38848 1.89228 9.43286 1.68412 9.51908C1.47597 9.6053 1.28683 9.73168 1.12751 9.89099C0.968197 10.0503 0.84182 10.2394 0.755599 10.4476C0.669378 10.6558 0.625 10.8789 0.625 11.1042ZM0.625 19.8051C0.625 20.0305 0.669378 20.2536 0.755599 20.4617C0.84182 20.6699 0.968197 20.859 1.12751 21.0183C1.28683 21.1776 1.47597 21.304 1.68412 21.3902C1.89228 21.4765 2.11538 21.5208 2.34069 21.5208C2.56599 21.5208 2.78909 21.4765 2.99725 21.3902C3.20541 21.304 3.39454 21.1776 3.55386 21.0183C3.71318 20.859 3.83955 20.6699 3.92577 20.4617C4.012 20.2536 4.05637 20.0305 4.05637 19.8051C4.05637 19.5798 4.012 19.3567 3.92577 19.1486C3.83955 18.9404 3.71318 18.7513 3.55386 18.592C3.39454 18.4327 3.20541 18.3063 2.99725 18.2201C2.78909 18.1338 2.56599 18.0895 2.34069 18.0895C2.11538 18.0895 1.89228 18.1338 1.68412 18.2201C1.47597 18.3063 1.28683 18.4327 1.12751 18.592C0.968197 18.7513 0.84182 18.9404 0.755599 19.1486C0.669378 19.3567 0.625 19.5798 0.625 19.8051Z" fill="black"/>
</svg>
