<svg width="22" height="23" viewBox="0 0 22 23" fill="none" xmlns="http://www.w3.org/2000/svg">
<path d="M20.289 18.737C19.7676 17.502 19.011 16.3803 18.0613 15.4342C17.1145 14.4854 15.993 13.7289 14.7586 13.2066C14.7475 13.201 14.7365 13.1983 14.7254 13.1928C16.4473 11.949 17.5666 9.92315 17.5666 7.63747C17.5666 3.85104 14.4988 0.783203 10.7123 0.783203C6.92591 0.783203 3.85807 3.85104 3.85807 7.63747C3.85807 9.92315 4.97742 11.949 6.69927 13.1955C6.68822 13.201 6.67716 13.2038 6.66611 13.2093C5.42792 13.7317 4.31686 14.4807 3.36335 15.437C2.41455 16.3838 1.65808 17.5053 1.13571 18.7397C0.622528 19.9482 0.345759 21.2439 0.320382 22.5566C0.319644 22.5861 0.324818 22.6154 0.335599 22.6429C0.34638 22.6703 0.362549 22.6954 0.383155 22.7165C0.40376 22.7376 0.428385 22.7544 0.455577 22.7659C0.48277 22.7773 0.51198 22.7832 0.541487 22.7832H2.19978C2.32139 22.7832 2.41812 22.6865 2.42088 22.5676C2.47616 20.434 3.33294 18.4357 4.84752 16.9211C6.4146 15.3541 8.49576 14.4917 10.7123 14.4917C12.9289 14.4917 15.0101 15.3541 16.5772 16.9211C18.0917 18.4357 18.9485 20.434 19.0038 22.5676C19.0066 22.6892 19.1033 22.7832 19.2249 22.7832H20.8832C20.9127 22.7832 20.9419 22.7773 20.9691 22.7659C20.9963 22.7544 21.0209 22.7376 21.0415 22.7165C21.0621 22.6954 21.0783 22.6703 21.0891 22.6429C21.0999 22.6154 21.105 22.5861 21.1043 22.5566C21.0767 21.2355 20.803 19.9503 20.289 18.737ZM10.7123 12.3912C9.44375 12.3912 8.24978 11.8965 7.35154 10.9983C6.45329 10.1 5.95857 8.90607 5.95857 7.63747C5.95857 6.36888 6.45329 5.17491 7.35154 4.27667C8.24978 3.37843 9.44375 2.88371 10.7123 2.88371C11.9809 2.88371 13.1749 3.37843 14.0731 4.27667C14.9714 5.17491 15.4661 6.36888 15.4661 7.63747C15.4661 8.90607 14.9714 10.1 14.0731 10.9983C13.1749 11.8965 11.9809 12.3912 10.7123 12.3912Z" fill="black"/>
</svg>
