<svg width="27" height="25" viewBox="0 0 27 25" fill="none" xmlns="http://www.w3.org/2000/svg">
<path d="M22.5632 1.27763C22.3287 0.888846 21.998 0.56704 21.603 0.343252C21.2079 0.119464 20.7619 0.00124556 20.3079 0H6.0079C5.08947 0 4.225 0.489474 3.75263 1.27763L0.188159 7.21711C0.0648103 7.42159 -0.000256533 7.65593 7.60104e-07 7.89474C0.00525564 9.16476 0.473019 10.3894 1.31579 11.3395V22.3684C1.31579 23.8197 2.49605 25 3.94737 25H22.3684C23.8197 25 25 23.8197 25 22.3684V11.3395C25.8428 10.3894 26.3105 9.16476 26.3158 7.89474C26.316 7.65593 26.251 7.42159 26.1276 7.21711L22.5632 1.27763ZM23.6632 8.225C23.5819 8.86029 23.2722 9.44427 22.7917 9.86779C22.3113 10.2913 21.6931 10.5254 21.0526 10.5263C19.6013 10.5263 18.4211 9.34605 18.4211 7.89474C18.4211 7.80526 18.3882 7.72632 18.3697 7.64211L18.3961 7.63684L17.3947 2.63158H20.3079L23.6632 8.225ZM11.6039 2.63158H14.7105L15.7803 7.98026C15.7342 9.39079 14.5789 10.5263 13.1579 10.5263C11.7368 10.5263 10.5816 9.39079 10.5355 7.98026L11.6039 2.63158ZM6.0079 2.63158H8.92105L7.92105 7.63684L7.94737 7.64211C7.92763 7.72632 7.89474 7.80526 7.89474 7.89474C7.89474 9.34605 6.71447 10.5263 5.26316 10.5263C4.6227 10.5254 4.00448 10.2913 3.52405 9.86779C3.04362 9.44427 2.73385 8.86029 2.65263 8.225L6.0079 2.63158ZM10.5263 22.3684V18.4211H15.7895V22.3684H10.5263ZM18.4211 22.3684V18.4211C18.4211 16.9697 17.2408 15.7895 15.7895 15.7895H10.5263C9.075 15.7895 7.89474 16.9697 7.89474 18.4211V22.3684H3.94737V12.9711C4.36974 13.0803 4.80526 13.1579 5.26316 13.1579C6.01028 13.1583 6.74889 12.9992 7.42961 12.6913C8.11034 12.3834 8.7175 11.9337 9.21053 11.3724C10.175 12.4671 11.5882 13.1579 13.1579 13.1579C14.7276 13.1579 16.1408 12.4671 17.1053 11.3724C17.5983 11.9337 18.2055 12.3834 18.8862 12.6913C19.5669 12.9992 20.3055 13.1583 21.0526 13.1579C21.5105 13.1579 21.9461 13.0803 22.3684 12.9711V22.3684H18.4211Z" fill="black"/>
</svg>
