<svg xmlns="http://www.w3.org/2000/svg" viewBox="0 0 193.99 43.13">
    <defs>
    </defs>
    <g >
        <path class="cls-1"
            d="M27.5,11.93v30.7H22.41V38.09a10,10,0,0,1-4.06,3.67,12.54,12.54,0,0,1-5.75,1.32,13.77,13.77,0,0,1-6.44-1.49,10.8,10.8,0,0,1-4.51-4.45A14.69,14.69,0,0,1,0,29.91v-18H5V29.24c0,3,.77,5.35,2.3,7a8.21,8.21,0,0,0,6.27,2.43,8.36,8.36,0,0,0,6.44-2.52c1.57-1.68,2.36-4.12,2.36-7.34V11.93Z" />
        <path class="cls-1"
            d="M46.48,41.93a10.64,10.64,0,0,1-4.42-3.36,9,9,0,0,1-1.79-5h5.26a5.16,5.16,0,0,0,2.16,3.75,8.16,8.16,0,0,0,5.07,1.46,7.36,7.36,0,0,0,4.59-1.29A3.94,3.94,0,0,0,59,34.28a3.2,3.2,0,0,0-1.79-3,25,25,0,0,0-5.55-1.94,39.63,39.63,0,0,1-5.57-1.82,9.87,9.87,0,0,1-3.7-2.74A7.21,7.21,0,0,1,40.88,20a7.31,7.31,0,0,1,1.4-4.32,9.52,9.52,0,0,1,4-3.1,14.25,14.25,0,0,1,5.88-1.15A12.61,12.61,0,0,1,60.38,14a9.31,9.31,0,0,1,3.36,7.06h-5.1a5.28,5.28,0,0,0-1.93-3.86A7.24,7.24,0,0,0,52,15.74a7.28,7.28,0,0,0-4.37,1.18A3.63,3.63,0,0,0,46,20a3.38,3.38,0,0,0,1,2.49,7,7,0,0,0,2.47,1.57c1,.39,2.36.83,4.11,1.32a42.54,42.54,0,0,1,5.38,1.76,9.43,9.43,0,0,1,3.56,2.61A7,7,0,0,1,64,34.28a7.79,7.79,0,0,1-1.4,4.54A9.45,9.45,0,0,1,58.67,42a14.22,14.22,0,0,1-5.86,1.14A16,16,0,0,1,46.48,41.93Z" />
        <path class="cls-1"
            d="M83.22,16.13v18.1a4.31,4.31,0,0,0,1,3.16,4.69,4.69,0,0,0,3.31.93h3.75v4.31H86.64q-4.26,0-6.39-2t-2.13-6.44V16.13h-4v-4.2h4V4.2h5.1v7.73h8v4.2Z" />
        <path class="cls-1"
            d="M103.21,18.91a13.81,13.81,0,0,1,5.24-5.52,14.31,14.31,0,0,1,7.42-2,13.69,13.69,0,0,1,7,1.73,11.63,11.63,0,0,1,4.43,4.37v-5.6h5.15v30.7H127.3V36.92a12,12,0,0,1-4.51,4.45,13.46,13.46,0,0,1-7,1.76,13.94,13.94,0,0,1-7.39-2,14.2,14.2,0,0,1-5.21-5.66,17.62,17.62,0,0,1-1.9-8.29A17.22,17.22,0,0,1,103.21,18.91Zm22.69,2.26a10,10,0,0,0-3.78-3.94,10.68,10.68,0,0,0-10.45,0,9.66,9.66,0,0,0-3.75,3.92,12.4,12.4,0,0,0-1.4,6.05,12.67,12.67,0,0,0,1.4,6.13,9.82,9.82,0,0,0,3.75,4,10.09,10.09,0,0,0,5.21,1.37,10.28,10.28,0,0,0,5.24-1.37,9.89,9.89,0,0,0,3.78-4,12.66,12.66,0,0,0,1.4-6.08A12.54,12.54,0,0,0,125.9,21.17Z" />
        <path class="cls-1"
            d="M147.06,5.94a3.37,3.37,0,0,1-1-2.47,3.35,3.35,0,0,1,1-2.46,3.36,3.36,0,0,1,2.47-1,3.22,3.22,0,0,1,2.38,1,3.4,3.4,0,0,1,1,2.46,3.43,3.43,0,0,1-1,2.47,3.22,3.22,0,0,1-2.38,1A3.36,3.36,0,0,1,147.06,5.94Zm4.93,6v30.7h-5.1V11.93Z" />
        <path class="cls-1"
            d="M190.52,14.76Q194,18.15,194,24.54V42.63h-5V25.26c0-3.06-.76-5.4-2.3-7a8.21,8.21,0,0,0-6.27-2.43A8.38,8.38,0,0,0,174,18.32c-1.59,1.68-2.38,4.12-2.38,7.34v17h-5.1V11.93h5.1V16.3a10.08,10.08,0,0,1,4.11-3.64,12.76,12.76,0,0,1,5.74-1.29A12.45,12.45,0,0,1,190.52,14.76Z" />
    </g>
</svg>