<svg width="70" height="10" viewBox="0 0 70 10" fill="none" xmlns="http://www.w3.org/2000/svg">
<path d="M50.8803 1.59395V3.18774L50.636 3.00405C50.2561 2.7123 49.849 2.58264 49.2248 2.55563C48.5734 2.52321 48.1067 2.61506 47.5422 2.89059C46.5814 3.35522 45.8704 4.23046 45.5827 5.29479C45.4579 5.76482 45.4524 6.76431 45.5773 7.23975C45.8433 8.26626 46.5706 9.17931 47.4607 9.60612C48.0632 9.90327 48.4595 9.99512 49.0782 9.99512C49.621 9.99512 50.1747 9.85465 50.6469 9.58992L50.8748 9.46565L50.8911 9.66555L50.9074 9.86005L51.8193 9.87626L52.7257 9.88706V4.94361V0.000159149H51.803H50.8803V1.59395ZM49.8218 4.55462C50.1638 4.7275 50.5003 5.07328 50.6957 5.45687C50.8368 5.7216 50.8531 5.80804 50.8531 6.26727C50.8531 6.7265 50.8368 6.81294 50.6957 7.09928C50.4949 7.50448 50.1475 7.85566 49.7784 8.02854C49.3822 8.21223 48.796 8.21223 48.3998 8.02854C48.0361 7.85566 47.6996 7.52069 47.5259 7.1371C47.3359 6.7427 47.2925 5.98633 47.4336 5.57032C47.6073 5.05166 47.9927 4.65727 48.5083 4.47358C48.9045 4.33311 49.4582 4.36552 49.8218 4.55462Z" fill="white"/>
<path d="M20.5007 0.108182C20.175 0.173014 19.8602 0.351303 19.6214 0.594423C19.3771 0.842947 19.2631 1.06446 19.1708 1.45345L19.1111 1.72899H17.9496H16.7935V3.59291V5.45684L16.9997 5.37039C17.6185 5.10026 17.7162 5.07325 17.9333 5.13268C18.6715 5.33257 18.5358 6.42932 17.7705 6.42932C17.6728 6.42932 17.4339 6.35368 17.2277 6.26724C17.0214 6.1808 16.8423 6.10516 16.826 6.10516C16.8097 6.10516 16.7935 6.94257 16.7935 7.96908V9.83301H20.8643H24.9352V8.64442C24.9352 7.53147 24.9406 7.45583 25.0329 7.45583C25.0872 7.45583 25.2554 7.41801 25.4129 7.37479C26.0696 7.18029 26.5798 6.49955 26.5853 5.81882C26.5907 4.97059 26.0045 4.25204 25.2012 4.11697L24.9623 4.07375L24.9461 2.90137L24.9352 1.72899H23.7465H22.5578L22.4981 1.45885C22.4113 1.05905 22.2593 0.799725 21.9499 0.524189C21.5537 0.173014 20.9892 0.00553116 20.5007 0.108182ZM21.2226 1.22113C21.4017 1.33999 21.532 1.64795 21.494 1.85325C21.4722 1.9505 21.3854 2.18281 21.2986 2.37731L21.1411 2.72848L22.5252 2.74469L23.9039 2.7555V4.10617C23.9039 4.85174 23.9148 5.45684 23.9256 5.45684C23.9365 5.45684 24.1047 5.3866 24.2947 5.30556C24.7887 5.08405 24.8972 5.06784 25.1469 5.16509C25.6517 5.36499 25.7168 6.04033 25.25 6.32127C25.0058 6.46714 24.7887 6.45633 24.3653 6.26724C24.1645 6.1808 23.9799 6.10516 23.9528 6.10516C23.9256 6.10516 23.9039 6.68324 23.9039 7.45583V8.8065H20.8643H17.8247V8.13657V7.47204L18.0473 7.43422C18.6118 7.34237 19.2143 6.83452 19.3717 6.31046C19.6105 5.50546 19.2903 4.68425 18.5901 4.30607C18.4381 4.21962 18.2101 4.13858 18.0853 4.11697L17.8519 4.07375L17.8356 3.41462L17.8193 2.7555H19.1546C19.8982 2.7555 20.4844 2.73389 20.4844 2.70687C20.4844 2.67986 20.4138 2.48536 20.3215 2.28006C20.1316 1.83164 20.1207 1.65875 20.2673 1.41563C20.4627 1.09687 20.8969 1.01043 21.2226 1.22113Z" fill="white"/>
<path d="M2.81704 2.57224C2.61079 2.62086 2.24169 2.75053 2.00287 2.86398C1.09099 3.3016 0.472221 4.01475 0.146551 4.99804C0.0108557 5.39243 0 5.50589 0 6.26767C0 7.02945 0.0108557 7.1429 0.146551 7.5373C0.607917 8.91498 1.62835 9.74159 3.11557 9.94689C3.99488 10.0712 4.85248 9.81723 5.68836 9.19052L6.0466 8.92038V9.37421V9.83344H6.94219H7.83778V6.29468V2.75593L6.95848 2.76673L6.07374 2.78294L6.05746 3.17193L6.04117 3.56093L5.68836 3.29079C4.76021 2.59385 3.83205 2.36153 2.81704 2.57224ZM4.26627 4.49559C4.65165 4.67388 4.9936 5.03046 5.19986 5.45727C5.34098 5.75982 5.36812 5.86787 5.36812 6.24066C5.36812 6.61344 5.34098 6.72149 5.19443 7.03485C4.9936 7.45626 4.69507 7.77502 4.29884 7.98032C4.06002 8.10458 3.9406 8.12619 3.57694 8.13159C3.19156 8.13159 3.09929 8.10998 2.77905 7.9533C2.38282 7.75881 2.16028 7.52649 1.95945 7.09428C1.79661 6.7323 1.79118 5.83545 1.95945 5.42485C2.11143 5.04126 2.32854 4.77653 2.61621 4.60905C3.14814 4.29569 3.73977 4.25787 4.26627 4.49559Z" fill="white"/>
<path d="M39.8672 2.70656C39.7315 2.73357 39.5036 2.793 39.3516 2.84162C39.1562 2.90646 39.0748 2.91726 39.0585 2.86864C39.0422 2.82542 38.7654 2.80921 38.1195 2.80921H37.2021V6.34796V9.88672H38.1249H39.0476V7.76347C39.0476 6.47223 39.0693 5.56458 39.1019 5.44572C39.3679 4.50025 40.638 4.19229 41.349 4.89464C41.4304 4.98109 41.5553 5.14857 41.6204 5.26743C41.729 5.47813 41.7344 5.55377 41.7507 7.68783L41.767 9.88672L42.6734 9.87591L43.5799 9.85971L43.5744 7.59058V5.32145L43.4279 4.88384C43.2433 4.33276 42.9611 3.89515 42.516 3.48995C41.8104 2.84162 40.7628 2.52827 39.8672 2.70656Z" fill="white"/>
<path d="M9.6127 2.79332C9.59099 2.80952 9.57471 4.40332 9.57471 6.33207V9.83301H10.4974H11.4202V7.82861C11.4202 6.5914 11.4419 5.74318 11.4799 5.60271C11.5613 5.27315 11.7893 4.9706 12.0986 4.7815L12.3592 4.61942L13.385 4.60321L14.4055 4.5816L14.3946 3.68476L14.3783 2.78251L13.5642 2.7663C12.5166 2.7501 12.0552 2.82033 11.355 3.10667C11.2736 3.13909 11.2573 3.11748 11.2573 2.94999V2.7555H10.454C10.0089 2.7555 9.62899 2.77171 9.6127 2.79332Z" fill="white"/>
<path d="M28.4797 5.08948C28.5014 7.63415 28.5069 7.67196 28.8868 8.40133C29.2613 9.11448 30.0158 9.69797 30.83 9.90867C31.0145 9.9573 31.3727 9.99512 31.6333 9.99512C32.0132 9.99512 32.1761 9.9681 32.5452 9.83304C32.7894 9.74119 32.9957 9.67096 33.0065 9.67096C33.0174 9.67096 33.0228 9.71958 33.0228 9.77901C33.0228 9.88706 33.0499 9.88706 33.9347 9.87626L34.8411 9.86005L34.8574 6.3321L34.8683 2.80955H33.951H33.0282L33.0119 4.95442C32.9957 7.09388 32.9957 7.10468 32.8654 7.3478C32.5289 7.99613 31.9481 8.30408 31.3402 8.15821C30.9657 8.07176 30.6671 7.83405 30.488 7.49908L30.336 7.21274L30.3197 5.00844L30.3035 2.80955H29.3807H28.458L28.4797 5.08948Z" fill="white"/>
<path d="M55.0217 5.08936C55.0434 7.62862 55.0489 7.67184 55.4288 8.4012C56.091 9.67623 57.7356 10.3246 59.0763 9.83831C59.4888 9.68704 59.5105 9.68164 59.5105 9.78429C59.5105 9.88694 59.5485 9.88694 60.4495 9.87613L61.3831 9.85992L61.3994 6.33197L61.4103 2.80943H60.4604H59.5105V4.9705C59.5105 7.06674 59.5051 7.14238 59.3965 7.36389C59.0817 7.9906 58.4847 8.30395 57.8822 8.15808C57.5077 8.07164 57.2091 7.83392 57.03 7.49895L56.878 7.21261L56.8617 5.00832L56.8455 2.80943H55.9227H55L55.0217 5.08936Z" fill="white"/>
<path d="M65.2475 2.8691C64.7318 2.98795 64.1022 3.45258 63.8308 3.91181C63.4671 4.52772 63.4292 5.37054 63.7331 6.02426C64.0371 6.66718 64.645 7.13721 65.3615 7.28849C65.5189 7.3209 66.1485 7.34792 66.7618 7.34792C67.424 7.34792 67.918 7.36953 67.9831 7.40194C68.1351 7.48298 68.1188 7.78013 67.9614 7.93141C67.8365 8.05026 67.8203 8.05026 65.6817 8.05026H63.5269V8.96872V9.89258L65.85 9.87637C68.1134 9.86016 68.1731 9.85476 68.4662 9.7359C69.0795 9.48738 69.5355 9.03355 69.7797 8.42845C69.948 8.00164 69.948 7.27768 69.7743 6.85087C69.6277 6.46728 69.2206 6.01886 68.8624 5.81896C68.3739 5.55963 68.0645 5.51101 66.7835 5.51101C65.6329 5.51101 65.6057 5.51101 65.4972 5.38674C65.4374 5.32191 65.3723 5.22466 65.356 5.17604C65.3072 5.04637 65.4157 4.76544 65.5351 4.7006C65.5949 4.66819 66.4036 4.64658 67.538 4.64658H69.4432V3.72812V2.80967L67.4512 2.81507C66.3493 2.82047 65.3615 2.84208 65.2475 2.8691Z" fill="white"/>
</svg>
