<svg width="17" height="22" viewBox="0 0 17 22" fill="none" xmlns="http://www.w3.org/2000/svg">
<path d="M8.5 1.625C8.03572 1.27679 7.48365 1.06475 6.90564 1.01263C6.32764 0.96051 5.74654 1.07038 5.22746 1.32992C4.70838 1.58946 4.27182 1.98842 3.96672 2.48209C3.66161 2.97577 3.5 3.54465 3.5 4.125V6H2.25C1.91848 6 1.60054 6.1317 1.36612 6.36612C1.1317 6.60054 1 6.91848 1 7.25V17.25C1 18.2446 1.39509 19.1984 2.09835 19.9016C2.80161 20.6049 3.75544 21 4.75 21H12.875C13.7038 21 14.4987 20.6708 15.0847 20.0847C15.6708 19.4987 16 18.7038 16 17.875V7.25C16 6.91848 15.8683 6.60054 15.6339 6.36612C15.3995 6.1317 15.0815 6 14.75 6H13.5V4.125C13.5 3.54465 13.3384 2.97577 13.0333 2.48209C12.7282 1.98842 12.2916 1.58946 11.7725 1.32992C11.2535 1.07038 10.6724 0.96051 10.0944 1.01263C9.51635 1.06475 8.96428 1.27679 8.5 1.625ZM4.75 4.125C4.75 3.62772 4.94754 3.15081 5.29917 2.79918C5.6508 2.44755 6.12772 2.25 6.625 2.25C7.12228 2.25 7.59919 2.44755 7.95082 2.79918C8.30246 3.15081 8.5 3.62772 8.5 4.125V6H4.75V4.125ZM9.33375 2.565C9.61613 2.37644 9.94442 2.26809 10.2836 2.25153C10.6227 2.23498 10.96 2.31083 11.2594 2.47099C11.5588 2.63115 11.8091 2.86962 11.9836 3.16092C12.158 3.45223 12.2501 3.78545 12.25 4.125V6H9.75V4.125C9.75 3.5575 9.59875 3.025 9.33375 2.565ZM4.75 19.75C4.08696 19.75 3.45107 19.4866 2.98223 19.0178C2.51339 18.5489 2.25 17.913 2.25 17.25V7.25H9.75V17.875C9.75 18.5787 9.9825 19.2275 10.375 19.75H4.75ZM14.75 17.875C14.75 18.3723 14.5525 18.8492 14.2008 19.2008C13.8492 19.5525 13.3723 19.75 12.875 19.75C12.3777 19.75 11.9008 19.5525 11.5492 19.2008C11.1975 18.8492 11 18.3723 11 17.875V7.25H14.75V17.875Z" fill="black" stroke="black"/>
</svg>
