<svg width="110" height="100" viewBox="0 0 110 100" fill="none" xmlns="http://www.w3.org/2000/svg">
<g clip-path="url(#clip0)">
<path d="M66.7083 32.6042C63.4127 29.1319 59.9784 26.1111 56.4054 23.5417C52.8323 20.9722 49.4847 19.0451 46.3627 17.7604C43.2406 16.4757 40.3787 15.8594 37.7769 15.9115C35.1752 15.9635 33.1458 16.7708 31.6888 18.3333C31.3419 18.6806 31.0471 19.0712 30.8042 19.5052C30.5614 19.9392 30.388 20.2778 30.2839 20.5208C30.1798 20.7639 30.0411 21.1979 29.8676 21.8229C29.6942 22.4479 29.5727 22.8472 29.5034 23.0208L10.1464 86.7708L11.3432 88.0208C9.9903 88.9583 8.78482 90.0521 7.72678 91.3021C6.66874 92.5521 5.74078 93.5764 4.94292 94.375C4.14505 95.1736 3.19108 95.7292 2.081 96.0417C1.83817 96.1111 1.53463 96.3455 1.17039 96.7448C0.806145 97.1441 0.624023 97.5 0.624023 97.8125C0.624023 98.4375 0.936233 98.9583 1.56065 99.375C2.18507 99.7917 2.87887 100 3.64204 100C4.61336 100 5.54999 99.6094 6.45193 98.8281C7.35386 98.0469 8.26447 97.0486 9.18376 95.8333C10.103 94.618 10.7708 93.8194 11.1871 93.4375C12.089 92.6389 13.095 91.875 14.2051 91.1458L15.558 92.4479L77.0632 71.5625C78.4161 71.1458 79.4568 70.5208 80.1853 69.6875C81.6423 68.125 82.3968 65.9635 82.4488 63.2031C82.5009 60.4427 81.9198 57.4045 80.7057 54.0885C79.4915 50.7726 77.679 47.2309 75.268 43.4635C72.8571 39.6962 70.0038 36.0764 66.7083 32.6042ZM61.0885 38.2812C66.3961 43.6979 70.4288 48.8802 73.1866 53.8281C75.9445 58.776 76.6123 62.0312 75.19 63.5938C73.7677 65.1562 70.6629 64.5833 65.8757 61.875C61.0885 59.1667 56.0585 55.1215 50.7856 49.7396C45.4434 44.3229 41.3933 39.1493 38.6355 34.2188C35.8776 29.2882 35.2099 26.0243 36.6321 24.4271C38.0544 22.8646 41.1678 23.4375 45.9724 26.1458C50.7769 28.8542 55.8157 32.8993 61.0885 38.2812ZM49.6929 59.8438C52.2253 62.1007 54.7403 64.0799 57.2379 65.7812C57.2726 65.8507 58.1399 67.4826 59.8397 70.6771L55.4688 72.1875C53.3874 68.2639 51.4621 64.1493 49.6929 59.8438ZM31.949 35.9896C32.7122 37.691 33.7702 39.7569 35.1231 42.1875C36.2332 47.1875 37.9764 52.6042 40.3526 58.4375C42.7289 64.2708 45.322 69.7396 48.1318 74.8438L43.813 76.3021C40.5521 70.2604 37.7075 63.9323 35.2792 57.3177C32.8509 50.7031 31.3593 44.8611 30.8042 39.7917L31.949 35.9896ZM25.913 55.0521C28.3413 62.8299 31.7582 70.816 36.1638 79.0104L31.897 80.5208C28.4627 73.9236 25.7569 67.7257 23.7795 61.9271L25.913 55.0521ZM19.929 74.0625C21.2819 77.2569 22.7215 80.2951 24.2478 83.1771L19.981 84.6875C19.4953 83.75 18.8015 82.309 17.8996 80.3646L19.929 74.0625ZM58.1746 0L60.7763 7.86458L54.0638 12.7604H62.3374L64.8871 20.625L67.4368 12.7604H75.6583L68.9978 7.86458L71.5996 0.0520833L64.8871 4.89583L58.1746 0ZM43.6048 0L42.1999 7.13542L49.3286 8.54167L50.7336 1.40625L43.6048 0ZM90.4882 21.4583L96.212 15.4688L103.653 19.1146L99.8025 11.8229L105.578 5.9375L97.4088 7.34375L93.5583 0L92.4135 8.22917L84.244 9.63542L91.685 13.2292L90.4882 21.4583ZM88.5629 34.2708L95.4836 38.8542L93.2981 46.875L99.7504 41.6667L106.619 46.25L103.757 38.4375L110.209 33.3333L101.936 33.6979L99.0219 25.9375L96.8885 33.9062L88.5629 34.2708ZM85.5969 14.9479L70.0906 27.6562L72.0158 30L87.5222 17.2917L85.5969 14.9479ZM91.0086 39.5312L78.8844 38.4375L78.5722 41.4583L90.7484 42.5521L91.0086 39.5312ZM92.2054 54.1146L89.9679 61.0938L96.8885 63.3333L99.178 56.4062L92.2054 54.1146Z" fill="#DE1568"/>
</g>
<defs>
<clipPath id="clip0">
<rect width="109.898" height="100"/>
</clipPath>
</defs>
</svg>
