<svg width="19" height="19" viewBox="0 0 19 19" fill="none" xmlns="http://www.w3.org/2000/svg">
<path fill-rule="evenodd" clip-rule="evenodd" d="M18.9198 0.651278C18.8671 0.524241 18.79 0.408767 18.6928 0.31139L18.6886 0.307167C18.4911 0.110195 18.2234 -0.000287636 17.9444 5.62419e-07H11.6111C11.3312 5.62419e-07 11.0627 0.111211 10.8647 0.309166C10.6668 0.507121 10.5556 0.775605 10.5556 1.05556C10.5556 1.33551 10.6668 1.60399 10.8647 1.80195C11.0627 1.9999 11.3312 2.11111 11.6111 2.11111H15.3963L7.69817 9.80928C7.59735 9.90665 7.51694 10.0231 7.46162 10.1519C7.40629 10.2807 7.37718 10.4192 7.37596 10.5594C7.37474 10.6995 7.40145 10.8385 7.45452 10.9682C7.5076 11.098 7.58597 11.2158 7.68508 11.3149C7.78419 11.414 7.90205 11.4924 8.03177 11.5455C8.1615 11.5986 8.30049 11.6253 8.44065 11.624C8.5808 11.6228 8.71931 11.5937 8.84809 11.5384C8.97688 11.4831 9.09335 11.4027 9.19072 11.3018L16.8889 3.60367V7.38889C16.8889 7.66884 17.0001 7.93733 17.1981 8.13528C17.396 8.33323 17.6645 8.44445 17.9444 8.44445C18.2244 8.44445 18.4929 8.33323 18.6908 8.13528C18.8888 7.93733 19 7.66884 19 7.38889V1.05556V1.05239C19 0.915167 18.9726 0.780056 18.9198 0.651278ZM0 5.27778C0 3.87802 0.55605 2.5356 1.54583 1.54583C2.5356 0.55605 3.87802 5.62419e-07 5.27778 5.62419e-07H6.33333C6.61328 5.62419e-07 6.88177 0.111211 7.07972 0.309166C7.27768 0.507121 7.38889 0.775605 7.38889 1.05556C7.38889 1.33551 7.27768 1.60399 7.07972 1.80195C6.88177 1.9999 6.61328 2.11111 6.33333 2.11111H5.27778C4.43793 2.11111 3.63247 2.44474 3.03861 3.03861C2.44474 3.63247 2.11111 4.43793 2.11111 5.27778V13.7222C2.11111 14.5621 2.44474 15.3675 3.03861 15.9614C3.63247 16.5553 4.43793 16.8889 5.27778 16.8889H13.7222C14.5621 16.8889 15.3675 16.5553 15.9614 15.9614C16.5553 15.3675 16.8889 14.5621 16.8889 13.7222V12.6667C16.8889 12.3867 17.0001 12.1182 17.1981 11.9203C17.396 11.7223 17.6645 11.6111 17.9444 11.6111C18.2244 11.6111 18.4929 11.7223 18.6908 11.9203C18.8888 12.1182 19 12.3867 19 12.6667V13.7222C19 15.122 18.444 16.4644 17.4542 17.4542C16.4644 18.444 15.122 19 13.7222 19H5.27778C3.87802 19 2.5356 18.444 1.54583 17.4542C0.55605 16.4644 0 15.122 0 13.7222V5.27778Z" fill="#DE1568"/>
</svg>
