<svg width="22" height="22" viewBox="0 0 22 22" fill="none" xmlns="http://www.w3.org/2000/svg">
<path d="M14.9727 15.1476C15.2497 14.1773 15.433 13.05 15.5028 11.9676C15.5043 11.9393 15.5001 11.9111 15.4902 11.8845C15.4804 11.8579 15.4652 11.8337 15.4456 11.8133C15.426 11.7928 15.4024 11.7766 15.3763 11.7657C15.3501 11.7547 15.3221 11.7493 15.2937 11.7497H11.9628C11.9355 11.7494 11.9085 11.7545 11.8832 11.7647C11.8579 11.7749 11.8349 11.79 11.8154 11.8091C11.796 11.8283 11.7805 11.851 11.7698 11.8761C11.7591 11.9012 11.7535 11.9282 11.7533 11.9554V14.5476C11.7539 14.6 11.7742 14.6502 11.8101 14.6882C11.8461 14.7263 11.8951 14.7494 11.9473 14.7529C12.886 14.8288 13.8135 15.0078 14.713 15.2868C14.7659 15.3027 14.8229 15.297 14.8716 15.2709C14.9203 15.2448 14.9566 15.2005 14.9727 15.1476Z" fill="white"/>
<path d="M14.1678 16.6867C13.4542 16.4783 12.723 16.3357 11.9834 16.2606C11.9549 16.2574 11.926 16.2602 11.8985 16.2687C11.8711 16.2773 11.8457 16.2915 11.8241 16.3104C11.8024 16.3294 11.785 16.3526 11.7728 16.3786C11.7606 16.4046 11.7539 16.4329 11.7533 16.4617V19.5198C11.7544 19.5563 11.765 19.5918 11.7841 19.6229C11.8032 19.654 11.8301 19.6796 11.8621 19.6971C11.8941 19.7147 11.9302 19.7235 11.9667 19.7228C12.0031 19.7221 12.0388 19.7119 12.0702 19.6932C12.8155 19.2587 13.4295 18.5288 13.9845 17.5637C14.0755 17.4062 14.2138 17.1348 14.2972 16.9688C14.3102 16.9421 14.317 16.9129 14.3174 16.8832C14.3177 16.8536 14.3115 16.8242 14.2991 16.7972C14.2867 16.7703 14.2685 16.7464 14.2458 16.7272C14.2232 16.7081 14.1965 16.6943 14.1678 16.6867Z" fill="white"/>
<path d="M10.0292 16.2688C9.29052 16.339 8.55991 16.4774 7.8467 16.6822C7.72295 16.7178 7.67092 16.8885 7.72717 17.0005C7.81108 17.1674 7.91467 17.3807 8.00327 17.54C8.61264 18.6182 9.2614 19.2978 9.9364 19.693C9.96773 19.7117 10.0034 19.7219 10.0399 19.7226C10.0764 19.7233 10.1124 19.7144 10.1444 19.6969C10.1765 19.6794 10.2033 19.6538 10.2224 19.6227C10.2415 19.5916 10.2522 19.556 10.2533 19.5196V16.46C10.253 16.4321 10.2468 16.4045 10.235 16.3792C10.2232 16.3539 10.2061 16.3314 10.1849 16.3133C10.1636 16.2951 10.1387 16.2818 10.1119 16.2741C10.085 16.2664 10.0568 16.2646 10.0292 16.2688Z" fill="white"/>
<path d="M10.0438 11.7497H6.71281C6.68454 11.7493 6.65649 11.7547 6.6304 11.7657C6.60432 11.7766 6.58075 11.7927 6.56115 11.8131C6.54156 11.8335 6.52635 11.8577 6.51648 11.8842C6.50661 11.9107 6.50227 11.9389 6.50375 11.9672C6.57312 13.0481 6.75547 14.1778 7.03156 15.1472C7.03939 15.1737 7.05241 15.1984 7.06986 15.2199C7.08731 15.2413 7.10884 15.2591 7.13321 15.2722C7.15759 15.2853 7.18431 15.2934 7.21184 15.296C7.23937 15.2987 7.26716 15.2959 7.29359 15.2878C8.193 15.0088 9.12052 14.8302 10.0592 14.7553C10.1116 14.7519 10.1607 14.7288 10.1967 14.6907C10.2328 14.6527 10.2532 14.6024 10.2538 14.55V11.9559C10.2536 11.9286 10.248 11.9015 10.2373 11.8763C10.2267 11.8511 10.2111 11.8283 10.1916 11.8091C10.1721 11.79 10.149 11.7749 10.1236 11.7646C10.0982 11.7544 10.0711 11.7493 10.0438 11.7497Z" fill="white"/>
<path d="M11.9844 5.73966C12.7235 5.67041 13.4537 5.52687 14.1641 5.31123C14.1926 5.30352 14.219 5.28964 14.2416 5.27057C14.2642 5.25151 14.2822 5.22771 14.2946 5.20088C14.3069 5.17405 14.3132 5.14484 14.313 5.1153C14.3128 5.08577 14.3061 5.05664 14.2934 5.02998C14.2095 4.86263 14.0933 4.6231 14.0042 4.46326C13.4281 3.43201 12.7789 2.71248 12.0711 2.30701C12.0397 2.28845 12.0041 2.27836 11.9676 2.27774C11.9312 2.27712 11.8952 2.286 11.8633 2.3035C11.8313 2.321 11.8044 2.34651 11.7853 2.37754C11.7662 2.40856 11.7555 2.44403 11.7542 2.48045V5.5381C11.7549 5.56686 11.7615 5.59516 11.7737 5.62121C11.7859 5.64727 11.8034 5.6705 11.825 5.68945C11.8466 5.7084 11.872 5.72265 11.8994 5.73129C11.9269 5.73994 11.9558 5.74279 11.9844 5.73966Z" fill="white"/>
<path d="M11.9628 10.2504H15.2937C15.3218 10.2509 15.3497 10.2456 15.3756 10.2349C15.4016 10.2242 15.4251 10.2083 15.4446 10.1882C15.4642 10.1681 15.4795 10.1442 15.4895 10.118C15.4995 10.0918 15.504 10.0638 15.5028 10.0357C15.4334 8.96839 15.2558 7.79511 14.9797 6.83792C14.9716 6.81161 14.9584 6.78714 14.9409 6.76594C14.9233 6.74473 14.9017 6.7272 14.8774 6.71435C14.853 6.7015 14.8264 6.69359 14.799 6.69107C14.7716 6.68854 14.7439 6.69146 14.7176 6.69964C13.827 6.9687 12.8994 7.18855 11.9478 7.26214C11.8958 7.26509 11.8468 7.28761 11.8108 7.32517C11.7747 7.36274 11.7541 7.41256 11.7533 7.46464V10.0479C11.7543 10.1025 11.7769 10.1545 11.8162 10.1925C11.8554 10.2305 11.9082 10.2513 11.9628 10.2504Z" fill="white"/>
<path d="M9.93639 2.30773C9.21358 2.70945 8.56905 3.45289 7.99249 4.48133C7.90295 4.64117 7.79608 4.86148 7.71124 5.02836C7.69862 5.05503 7.692 5.08415 7.69185 5.11365C7.69169 5.14316 7.698 5.17235 7.71033 5.19915C7.72266 5.22596 7.74072 5.24974 7.76323 5.26882C7.78573 5.28791 7.81215 5.30183 7.84061 5.30961C8.55066 5.52921 9.28189 5.67329 10.0222 5.73945C10.0507 5.74257 10.0796 5.73974 10.107 5.73112C10.1344 5.72251 10.1597 5.7083 10.1814 5.6894C10.203 5.6705 10.2205 5.64732 10.2327 5.62132C10.2449 5.59532 10.2516 5.56707 10.2523 5.53836V2.48117C10.2508 2.44494 10.24 2.40971 10.2209 2.3789C10.2018 2.34808 10.1751 2.32272 10.1433 2.30527C10.1115 2.28782 10.0758 2.27888 10.0395 2.27931C10.0033 2.27974 9.96775 2.28953 9.93639 2.30773Z" fill="white"/>
<path d="M10.0588 7.2619C9.10719 7.18924 8.1786 6.9694 7.28891 6.6994C7.26262 6.69121 7.23498 6.6883 7.20757 6.69082C7.18016 6.69335 7.15351 6.70126 7.12917 6.71411C7.10482 6.72696 7.08325 6.74449 7.0657 6.76569C7.04814 6.7869 7.03495 6.81136 7.02688 6.83768C6.75078 7.79486 6.57313 8.96814 6.50375 10.0355C6.50253 10.0635 6.50706 10.0915 6.51706 10.1177C6.52707 10.144 6.54233 10.1679 6.56191 10.188C6.58149 10.2081 6.60498 10.224 6.63093 10.2347C6.65688 10.2454 6.68475 10.2506 6.71281 10.2502H10.0438C10.0709 10.2506 10.0978 10.2457 10.123 10.2357C10.1483 10.2257 10.1713 10.2108 10.1907 10.1919C10.2102 10.173 10.2257 10.1505 10.2365 10.1256C10.2472 10.1006 10.2529 10.0739 10.2533 10.0467V7.4644C10.2524 7.41232 10.2319 7.36249 10.1958 7.32493C10.1597 7.28737 10.1108 7.26485 10.0588 7.2619Z" fill="white"/>
<path d="M18.4245 3.57515C17.4513 2.59226 16.2934 1.81135 15.0174 1.2773C13.7414 0.743247 12.3725 0.466571 10.9893 0.463167C9.60605 0.459762 8.23579 0.729696 6.9572 1.25746C5.67861 1.78523 4.51691 2.56042 3.53881 3.53851C2.56072 4.5166 1.78553 5.67831 1.25776 6.9569C0.729998 8.23549 0.460063 9.60575 0.463468 10.989C0.466872 12.3722 0.743549 13.7411 1.2776 15.0171C1.81165 16.2931 2.59256 17.451 3.57545 18.4242C4.54872 19.4071 5.70659 20.188 6.98257 20.7221C8.25854 21.2561 9.62746 21.5328 11.0107 21.5362C12.3939 21.5396 13.7642 21.2697 15.0428 20.7419C16.3214 20.2141 17.4831 19.4389 18.4612 18.4609C19.4392 17.4828 20.2144 16.3211 20.7422 15.0425C21.27 13.7639 21.5399 12.3936 21.5365 11.0104C21.5331 9.62716 21.2564 8.25824 20.7224 6.98227C20.1883 5.70629 19.4074 4.54841 18.4245 3.57515ZM7.27811 19.1958C7.06691 18.8992 6.87163 18.5916 6.69311 18.2742C6.59936 18.1012 6.46623 17.8402 6.37764 17.6587C6.35733 17.6157 6.32826 17.5774 6.29229 17.5462C6.25632 17.5151 6.21424 17.4918 6.16874 17.4779C6.12324 17.4639 6.07534 17.4596 6.02809 17.4653C5.98084 17.4709 5.93529 17.4864 5.89436 17.5106C5.6928 17.6236 5.42561 17.7787 5.23201 17.9058C4.82604 17.5972 4.45549 17.2446 4.12717 16.8544C4.58122 16.5339 5.05759 16.2463 5.55264 15.9937C5.63983 15.9469 5.68248 15.8934 5.65483 15.7978C5.29212 14.5425 5.07059 13.2506 4.99436 11.9461C4.99209 11.8939 4.96994 11.8446 4.93246 11.8083C4.89498 11.7719 4.845 11.7513 4.7928 11.7506H2.13311C2.1105 11.7509 2.08856 11.743 2.07133 11.7283C2.0541 11.7137 2.04275 11.6933 2.03936 11.6709C2.0099 11.4484 1.99674 11.2241 1.99998 10.9997C1.99678 10.7757 2.01025 10.5518 2.0403 10.3298C2.04369 10.3075 2.05504 10.2871 2.07227 10.2725C2.0895 10.2578 2.11144 10.2499 2.13405 10.2502H4.79373C4.90108 10.2502 4.9892 10.1883 4.99483 10.08C5.07005 8.78095 5.29017 7.49438 5.65108 6.24421C5.66452 6.19858 5.66162 6.14969 5.64288 6.10596C5.62414 6.06224 5.59073 6.02642 5.54842 6.00468C5.064 5.75647 4.59671 5.47615 4.14967 5.16562C4.47625 4.77553 4.83947 4.41764 5.23436 4.09687C5.42561 4.22249 5.67498 4.36453 5.87467 4.47703C5.91868 4.50204 5.96735 4.51776 6.01767 4.5232C6.068 4.52864 6.11891 4.52369 6.16724 4.50867C6.21558 4.49364 6.26032 4.46885 6.29868 4.43583C6.33705 4.40281 6.36823 4.36227 6.3903 4.31671C6.47842 4.13531 6.5778 3.93328 6.67436 3.75984C6.85365 3.43857 7.04987 3.12704 7.26217 2.82656C8.43095 2.27593 9.70801 1.99342 11 1.99968C12.3565 1.99968 13.6203 2.32781 14.7748 2.86499C14.9787 3.15121 15.1665 3.44855 15.3373 3.75562C15.4587 3.97406 15.5876 4.24171 15.6964 4.47374C15.7081 4.49845 15.7247 4.52052 15.7452 4.5386C15.7656 4.55668 15.7896 4.5704 15.8156 4.57891C15.8415 4.58742 15.869 4.59055 15.8962 4.5881C15.9234 4.58566 15.9499 4.57769 15.9739 4.56468C16.2261 4.42828 16.4994 4.27124 16.7398 4.11328C17.1358 4.4372 17.5 4.79821 17.8273 5.1914C17.3925 5.49294 16.9374 5.76406 16.4651 6.00281C16.4227 6.02457 16.3893 6.06049 16.3706 6.10433C16.352 6.14817 16.3493 6.19717 16.363 6.24281C16.7297 7.48448 16.9477 8.76533 17.0122 10.0584C17.0147 10.1103 17.037 10.1592 17.0745 10.1951C17.112 10.2311 17.1618 10.2513 17.2137 10.2516L19.8678 10.2483C19.8904 10.248 19.9123 10.2559 19.9296 10.2706C19.9468 10.2852 19.9582 10.3056 19.9615 10.328C20.0162 10.7735 20.0162 11.224 19.9615 11.6695C19.9584 11.6921 19.9471 11.7127 19.9298 11.7275C19.9126 11.7423 19.8905 11.7504 19.8678 11.7502H17.2114C17.1591 11.7507 17.1091 11.7713 17.0716 11.8077C17.0341 11.844 17.012 11.8934 17.0098 11.9456C16.9368 13.2363 16.7187 14.5147 16.3597 15.7566C16.3461 15.8027 16.3489 15.8522 16.3676 15.8965C16.3863 15.9408 16.4198 15.9774 16.4623 15.9998C16.6967 16.1212 16.9578 16.2567 17.1828 16.3945C17.4078 16.5323 17.6305 16.6795 17.8451 16.8323C17.5203 17.2237 17.1594 17.5836 16.767 17.9072C16.6526 17.8317 16.5167 17.7459 16.3995 17.6756C16.3189 17.6287 16.1703 17.5458 16.0878 17.4994C15.9087 17.3991 15.7184 17.4741 15.6289 17.6587C15.5394 17.8434 15.4025 18.1083 15.3069 18.2798C15.1306 18.5953 14.9374 18.9009 14.728 19.1953C13.5739 19.7358 12.3565 19.9997 11 19.9997C9.64342 19.9997 8.43264 19.7358 7.27811 19.1958Z" fill="white"/>
</svg>
